<svg xmlns="http://www.w3.org/2000/svg" viewBox="0 0 27 27"><defs><style>.cls-1{fill:#808387;}</style></defs><title>ios_share_icon</title><g id="Layer_2" data-name="Layer 2"><path class="cls-1" d="M18.82,8.32H16.36V10h2.46A2.16,2.16,0,0,1,21,12.17V22.8A2.16,2.16,0,0,1,18.82,25H8.18A2.16,2.16,0,0,1,6,22.8V12.17A2.16,2.16,0,0,1,8.18,10h2.21V8.32H8.18a3.86,3.86,0,0,0-3.84,3.85V22.8a3.86,3.86,0,0,0,3.84,3.85H18.82a3.86,3.86,0,0,0,3.84-3.85V12.17A3.86,3.86,0,0,0,18.82,8.32Z"/><path class="cls-1" d="M18.89,6.71a.92.92,0,0,1-.61.25.88.88,0,0,1-.61-.25L14.22,3.26v14H12.53v-14L9.08,6.71A.88.88,0,0,1,8.47,7a.92.92,0,0,1-.61-.25.85.85,0,0,1,0-1.2L12.66.73,12.78.6a1,1,0,0,1,.29-.19.81.81,0,0,1,.61,0A.85.85,0,0,1,14,.6l.12.13,4.8,4.78A.85.85,0,0,1,18.89,6.71Z"/><path class="cls-1" d="M14.09.73,14,.6a.85.85,0,0,0-.29-.19A.64.64,0,0,1,14,.6.42.42,0,0,1,14.09.73Z"/><path class="cls-1" d="M13.07.41a1,1,0,0,0-.29.19l-.12.13A.42.42,0,0,1,12.77.6.64.64,0,0,1,13.07.41Z"/></g></svg>