<?xml version="1.0" standalone="no"?>
<!DOCTYPE svg PUBLIC "-//W3C//DTD SVG 20010904//EN"
 "http://www.w3.org/TR/2001/REC-SVG-20010904/DTD/svg10.dtd">
<svg version="1.0" xmlns="http://www.w3.org/2000/svg"
 width="512.000000pt" height="512.000000pt" viewBox="0 0 512.000000 512.000000"
 preserveAspectRatio="xMidYMid meet">
<metadata>
Created by potrace 1.11, written by Peter Selinger 2001-2013
</metadata>
<g transform="translate(0.000000,512.000000) scale(0.100000,-0.100000)"
fill="#000000" stroke="none">
<path d="M3170 4765 c-164 -75 -183 -84 -250 -113 -81 -37 -164 -74 -258 -118
-41 -19 -75 -34 -77 -34 -2 0 -41 -17 -87 -39 -133 -62 -529 -241 -533 -241
-2 0 -51 -22 -110 -50 -59 -27 -108 -50 -110 -50 -2 0 -41 -17 -87 -39 -45
-21 -200 -92 -343 -156 -143 -65 -285 -129 -315 -143 -30 -13 -100 -45 -155
-69 -55 -25 -127 -58 -160 -73 -33 -15 -127 -58 -210 -95 -82 -37 -153 -70
-157 -74 -4 -3 31 -56 76 -117 l82 -112 45 21 c91 41 345 157 489 222 52 23
122 55 155 70 33 15 103 46 155 70 52 24 120 54 150 68 30 14 269 122 530 240
261 118 507 229 545 247 39 17 84 38 100 45 124 55 169 76 315 142 91 41 198
90 238 109 l73 34 77 -34 c42 -19 106 -47 142 -64 63 -29 558 -253 650 -294
25 -11 70 -32 100 -45 70 -32 141 -63 145 -63 1 0 33 43 70 95 37 52 71 98 76
101 21 13 6 35 -38 55 -27 12 -73 33 -103 46 -30 14 -95 43 -145 65 -49 22
-117 52 -150 68 -148 69 -237 110 -241 110 -2 0 -34 14 -71 31 -252 116 -505
229 -511 228 -4 0 -50 -20 -102 -44z"/>
<path d="M2995 3810 c-376 -172 -395 -181 -445 -203 -25 -10 -72 -32 -105 -47
-33 -16 -226 -103 -430 -195 -203 -92 -397 -180 -430 -195 -33 -15 -242 -109
-465 -210 -223 -101 -415 -191 -427 -199 -29 -21 -51 -77 -47 -120 6 -67 41
-94 229 -178 39 -17 120 -54 180 -81 61 -27 133 -60 160 -72 72 -32 259 -117
341 -155 132 -61 212 -95 224 -95 10 0 319 137 485 215 28 12 97 44 155 70 58
26 123 55 145 65 252 114 373 169 443 201 46 22 85 39 87 39 2 0 32 13 67 29
189 86 171 82 219 58 19 -8 160 -72 314 -142 154 -70 282 -128 284 -130 2 -2
-23 -16 -55 -31 -33 -14 -86 -39 -119 -54 -48 -22 -356 -162 -955 -432 -25
-12 -266 -121 -537 -244 l-492 -223 -73 33 c-73 34 -687 312 -763 346 -22 10
-87 39 -144 65 -81 36 -106 43 -112 33 -4 -7 -39 -55 -78 -107 -39 -52 -71
-98 -71 -102 0 -4 19 -16 43 -27 23 -11 82 -38 130 -61 49 -22 90 -41 92 -41
2 0 36 -15 77 -34 100 -46 693 -314 743 -336 22 -10 66 -30 98 -44 l59 -27
246 112 c136 61 270 122 297 134 131 59 284 128 320 145 22 10 166 76 320 145
154 70 300 136 325 147 101 46 197 89 290 131 30 13 84 38 120 54 36 16 103
47 150 68 47 21 132 60 189 86 57 27 105 49 107 49 5 0 178 80 214 99 47 26
72 74 67 130 -8 76 -11 78 -452 274 -55 24 -127 57 -160 72 -33 15 -78 36
-100 45 -22 10 -80 36 -128 59 -49 23 -90 41 -92 41 -2 0 -47 21 -101 46 l-97
45 -61 -27 c-72 -32 -367 -165 -446 -201 -30 -14 -219 -99 -420 -190 -201 -91
-394 -179 -430 -195 -36 -16 -95 -43 -131 -59 l-65 -30 -50 19 c-27 11 -89 39
-137 61 -48 23 -152 70 -230 105 -78 36 -166 75 -194 89 l-53 24 328 148 c180
81 354 160 387 175 33 15 132 60 220 100 88 40 185 84 215 97 30 14 154 70
275 125 121 55 281 127 355 160 74 33 173 78 220 100 47 22 101 47 122 55 l36
14 419 -189 c230 -105 445 -202 478 -217 33 -15 93 -43 134 -61 41 -19 75 -33
76 -32 5 8 149 205 157 214 9 12 4 14 -517 249 -137 62 -275 124 -305 138
-325 148 -436 197 -449 196 -9 0 -133 -54 -276 -119z"/>
<path d="M4585 1850 c-33 -15 -224 -102 -425 -193 -201 -90 -396 -179 -435
-197 -38 -18 -160 -73 -270 -122 -110 -50 -232 -105 -272 -124 -40 -19 -74
-34 -77 -34 -2 0 -42 -17 -88 -39 -45 -21 -229 -105 -408 -186 -411 -186 -403
-182 -475 -215 -33 -15 -82 -37 -110 -50 -27 -12 -78 -35 -113 -51 l-62 -29
-413 186 c-226 103 -476 216 -555 251 -79 36 -145 63 -146 62 -1 -2 -16 -22
-32 -44 -16 -22 -33 -44 -37 -50 -45 -58 -87 -121 -85 -127 3 -7 160 -82 358
-170 93 -41 127 -57 213 -97 49 -22 90 -41 92 -41 2 0 32 -13 67 -29 35 -16
137 -63 228 -104 91 -41 195 -89 233 -106 37 -17 70 -31 73 -31 3 0 31 12 62
26 31 14 116 52 187 84 72 32 184 83 250 113 177 80 230 105 330 149 50 23
132 60 184 84 51 24 95 44 96 44 2 0 36 15 77 33 40 19 116 53 168 77 52 23
124 56 160 73 36 16 108 49 160 72 209 94 298 134 373 169 43 20 80 36 83 36
2 0 46 20 97 44 50 25 234 108 407 186 173 77 318 144 323 149 6 6 -67 113
-145 212 -12 15 -19 14 -73 -11z"/>
</g>
</svg>
